<svg height="512pt" viewBox="-87 0 512 512" width="512pt" xmlns="http://www.w3.org/2000/svg"><path d="m290.300781 150.289062-120.859375 57.78125-120.859375-57.785156c-8.566406-4.09375-14.019531-12.742187-14.019531-22.238281v-120.546875h269.753906v120.550781c0 9.492188-5.453125 18.140625-14.015625 22.238281zm0 0" fill="#fc5b8c"/><path d="m304.316406 369.621094c0 74.492187-60.386718 134.878906-134.875 134.878906-74.492187 0-134.878906-60.386719-134.878906-134.878906 0-74.488282 60.386719-134.875 134.878906-134.875 74.488282 0 134.875 60.386718 134.875 134.875zm0 0" fill="#ff8533"/><path d="m267.636719 369.621094c0 54.234375-43.964844 98.199218-98.195313 98.199218-54.234375 0-98.199218-43.964843-98.199218-98.199218 0-54.230469 43.964843-98.195313 98.199218-98.195313 54.230469 0 98.195313 43.964844 98.195313 98.195313zm0 0" fill="#fcdf6c"/><path d="m169.441406 271.425781c-9.070312 0-17.84375 1.234375-26.179687 3.535157 41.523437 11.457031 72.019531 49.496093 72.019531 94.664062 0 45.164062-30.496094 83.203125-72.019531 94.664062 8.335937 2.300782 17.113281 3.535157 26.179687 3.535157 54.230469 0 98.195313-43.964844 98.195313-98.199219s-43.964844-98.199219-98.195313-98.199219zm0 0" fill="#f4b425"/><path d="m114.9375 182.011719 54.503906 26.058593 54.503906-26.058593v-174.511719h-109.007812zm0 0" fill="#e4eaf7"/><path d="m223.945312 7.5v174.511719l66.355469-31.722657c8.5625-4.097656 14.015625-12.746093 14.015625-22.238281v-120.550781zm0 0" fill="#6bd"/><path d="m251.957031 7.5v95.164062c0 9.492188-5.449219 18.144532-14.015625 22.238282l-13.996094 6.691406v50.417969l66.355469-31.722657c8.5625-4.097656 14.015625-12.746093 14.015625-22.238281v-120.550781zm0 0" fill="#52a7c9"/><path d="m318.234375 33.789062h-297.589844c-7.257812 0-13.144531-5.882812-13.144531-13.144531 0-7.257812 5.882812-13.144531 13.144531-13.144531h297.589844c7.261719 0 13.148437 5.882812 13.148437 13.144531-.003906 7.261719-5.886718 13.144531-13.148437 13.144531zm0 0" fill="#ff8533"/><path d="m117.082031 182.683594-2.144531-1.023438v.351563l54.503906 26.058593 54.503906-26.058593v-50.417969zm0 0" fill="#c3c8d0"/><path d="m169.511719 415.554688c3.460937 0 7.058593-1.597657 7.058593-4.660157v-88.132812c0-2.929688-3.328124-4.660157-6.257812-4.660157-1.597656 0-2.664062.53125-3.59375 1.464844l-13.847656 13.3125c-1.730469 1.195313-2.792969 3.460938-2.792969 5.457032 0 2.796874 1.996094 5.726562 4.789063 5.726562.800781 0 2-.402344 2.929687-1.332031l4.660156-5.859375v74.023437c0 3.0625 3.460938 4.660157 7.054688 4.660157zm0 0"/><path d="m100.265625 289.703125c-18.992187 16.449219-31.53125 39.121094-35.304687 63.832031-.625 4.097656 2.183593 7.921875 6.277343 8.546875.386719.058594.765625.089844 1.144531.089844 3.640626 0 6.835938-2.660156 7.402344-6.371094 3.238282-21.191406 14-40.640625 30.300782-54.761719 16.464843-14.261718 37.542968-22.113281 59.355468-22.113281 21.78125 0 42.839844 7.835938 59.296875 22.066407 16.289063 14.085937 27.0625 33.5 30.332031 54.65625.632813 4.09375 4.464844 6.902343 8.558594 6.265624 4.09375-.632812 6.898438-4.460937 6.265625-8.554687-3.8125-24.671875-16.363281-47.300781-35.34375-63.714844-19.179687-16.585937-43.722656-25.71875-69.109375-25.71875-25.417968 0-49.984375 9.152344-69.175781 25.777344zm0 0"/><path d="m267.640625 377.164062c-4.089844-.625-7.921875 2.1875-8.546875 6.28125-3.238281 21.191407-14 40.640626-30.300781 54.761719-16.464844 14.261719-37.542969 22.113281-59.355469 22.113281-21.800781 0-42.875-7.847656-59.335938-22.101562-16.296874-14.109375-27.0625-33.546875-30.308593-54.734375-.628907-4.09375-4.460938-6.902344-8.550781-6.273437-4.09375.625-6.90625 4.453124-6.277344 8.546874 3.785156 24.703126 16.328125 47.359376 35.316406 63.800782 19.1875 16.613281 43.746094 25.761718 69.15625 25.761718 25.417969 0 49.984375-9.152343 69.175781-25.773437 18.992188-16.453125 31.53125-39.121094 35.308594-63.835937.625-4.09375-2.1875-7.921876-6.28125-8.546876zm0 0"/><path d="m318.234375 0h-297.589844c-11.382812 0-20.644531 9.261719-20.644531 20.644531 0 11.386719 9.261719 20.648438 20.644531 20.648438h6.417969v86.757812c0 12.308594 7.175781 23.695313 18.285156 29.003907l93.71875 44.808593c-8.972656 3.148438-15.425781 11.707031-15.425781 21.742188v11.199219c-56.109375 19.109374-96.578125 72.328124-96.578125 134.820312 0 78.503906 63.871094 142.375 142.378906 142.375 78.503906 0 142.375-63.871094 142.375-142.375 0-62.492188-40.46875-115.710938-96.574218-134.820312v-11.199219c0-10.035157-6.453126-18.59375-15.425782-21.742188l93.71875-44.808593c11.105469-5.308594 18.28125-16.695313 18.28125-29.003907v-86.761719h6.417969c11.382813 0 20.648437-9.261718 20.648437-20.644531 0-11.382812-9.265624-20.644531-20.648437-20.644531zm-276.171875 128.046875v-86.757813h65.375v18.875c0 4.140626 3.359375 7.5 7.5 7.5s7.5-3.359374 7.5-7.5v-18.875h94.007812v135.996094l-47.003906 22.472656-47.003906-22.472656v-87.125c0-4.140625-3.359375-7.5-7.5-7.5-4.144531 0-7.5 3.359375-7.5 7.5v79.953125l-55.621094-26.59375c-5.925781-2.832031-9.753906-8.90625-9.753906-15.472656zm254.753906 241.578125c0 70.234375-57.140625 127.375-127.375 127.375-70.238281 0-127.378906-57.140625-127.378906-127.375s57.140625-127.378906 127.378906-127.378906c70.234375 0 127.375 57.140625 127.375 127.378906zm-96.574218-139.023438c-9.921876-2.195312-20.230469-3.355468-30.800782-3.355468-10.574218 0-20.882812 1.160156-30.800781 3.355468v-6.996093c0-4.429688 3.601563-8.035157 8.035156-8.035157h45.53125c4.429688 0 8.035157 3.605469 8.035157 8.035157zm96.574218-102.554687c0 6.566406-3.828125 12.640625-9.753906 15.472656l-55.617188 26.59375v-128.824219h65.371094zm21.417969-101.757813h-297.589844c-3.113281 0-5.644531-2.53125-5.644531-5.644531s2.53125-5.644531 5.644531-5.644531h297.589844c3.113281 0 5.648437 2.53125 5.648437 5.644531s-2.535156 5.644531-5.648437 5.644531zm0 0"/></svg>