<svg height="511pt" viewBox="0 -48 511.99929 511" width="511pt" xmlns="http://www.w3.org/2000/svg"><g fill="#fcdf6c"><path d="m43.242188 70.382812c11.808593-12.882812 24.179687-24.476562 37.804687-35.238281 1.605469-1.265625 3.910156.25 3.375 2.21875-7.636719 28.070313-20.980469 55.808594-41.546875 76.429688-.925781-14.4375-.941406-28.992188.367188-43.410157zm0 0"/><path d="m42.875 113.800781c-11.875-14.328125-22.082031-29.144531-31.277344-45.140625-1.050781-1.832031-3.847656-1.179687-3.953125.929688-1.660156 32.765625 10.859375 71.109375 41.363281 86.570312-3.039062-13.933594-5.230468-28.113281-6.132812-42.359375zm0 0"/><path d="m49.003906 156.148438c7.472656-15.375 15.839844-29.683594 25.644532-43.550782 1.164062-1.644531 3.773437-.890625 3.859374 1.121094 1.195313 28.304688-3.664062 58.230469-17.226562 83.074219-5.027344-13.222657-9.269531-26.808594-12.277344-40.644531zm0 0"/><path d="m61.285156 196.804688c-15.417968-9.910157-29.503906-20.746094-43.019531-32.917969-1.558594-1.40625-4.003906.0625-3.476563 2.089843 8.140626 31.300782 31.417969 63.417969 64.5625 69.09375-6.890624-12.304687-13.0625-25.074218-18.066406-38.265624zm0 0"/><path d="m79.34375 235.058594c2.703125-16.777344 6.566406-32.777344 11.945312-48.777344.640626-1.902344 3.339844-1.941406 4.011719-.046875 9.40625 26.554687 13.214844 56.515625 7.539063 84.046875-8.625-11.164062-16.605469-22.898438-23.496094-35.222656zm0 0"/><path d="m102.847656 270.289062c-17.578125-4.980468-34.183594-11.207031-50.628906-18.839843-1.902344-.882813-3.804688 1.230469-2.710938 3.015625 16.910157 27.578125 48.570313 51.453125 81.914063 47.339844-10.234375-9.808594-19.910156-20.285157-28.574219-31.515626zm0 0"/><path d="m131.414062 301.796875c-2.398437-16.902344-3.417968-33.386719-2.945312-50.335937.054688-2.007813 2.632812-2.832032 3.824219-1.214844 16.84375 22.835937 29.40625 50.574218 32.414062 78.691406-11.710937-8.230469-22.957031-17.226562-33.292969-27.140625zm0 0"/></g><path d="m468.757812 70.382812c-11.808593-12.882812-24.183593-24.476562-37.808593-35.238281-1.601563-1.265625-3.90625.25-3.371094 2.21875 7.636719 28.070313 20.976563 55.808594 41.546875 76.429688.925781-14.4375.9375-28.992188-.367188-43.410157zm0 0" fill="#f4b425"/><path d="m469.125 113.800781c11.875-14.328125 22.078125-29.144531 31.273438-45.140625 1.050781-1.832031 3.847656-1.179687 3.957031.929688 1.65625 32.765625-10.863281 71.109375-41.363281 86.570312 3.039062-13.933594 5.230468-28.113281 6.132812-42.359375zm0 0" fill="#f4b425"/><path d="m462.992188 156.148438c-7.472657-15.375-15.835938-29.683594-25.644532-43.550782-1.160156-1.644531-3.769531-.890625-3.855468 1.121094-1.195313 28.304688 3.664062 58.230469 17.226562 83.074219 5.027344-13.222657 9.265625-26.808594 12.273438-40.644531zm0 0" fill="#f4b425"/><path d="m450.714844 196.804688c15.417968-9.910157 29.503906-20.746094 43.019531-32.917969 1.558594-1.40625 4.003906.0625 3.472656 2.089843-8.136719 31.300782-31.417969 63.417969-64.558593 69.09375 6.890624-12.304687 13.058593-25.074218 18.066406-38.265624zm0 0" fill="#f4b425"/><path d="m432.652344 235.058594c-2.699219-16.777344-6.5625-32.777344-11.941406-48.777344-.640626-1.902344-3.34375-1.941406-4.011719-.046875-9.40625 26.554687-13.21875 56.515625-7.542969 84.046875 8.625-11.164062 16.605469-22.898438 23.496094-35.222656zm0 0" fill="#f4b425"/><path d="m409.152344 270.289062c17.574218-4.980468 34.183594-11.207031 50.628906-18.839843 1.898438-.882813 3.804688 1.230469 2.710938 3.015625-16.910157 27.578125-48.570313 51.453125-81.914063 47.339844 10.234375-9.808594 19.90625-20.285157 28.574219-31.515626zm0 0" fill="#f4b425"/><path d="m380.585938 301.796875c2.398437-16.902344 3.414062-33.386719 2.945312-50.335937-.058594-2.007813-2.632812-2.832032-3.824219-1.214844-16.84375 22.835937-29.40625 50.574218-32.414062 78.691406 11.710937-8.230469 22.957031-17.226562 33.292969-27.140625zm0 0" fill="#f4b425"/><path d="m420.714844 409.042969h-72.796875c-3.507813 0-6.351563-2.84375-6.351563-6.351563v-47.046875h79.148438c4.078125 0 5.957031 5.074219 2.863281 7.730469l-18.214844 15.632812c-2.042969 1.753907-2.042969 4.917969 0 6.671876l18.214844 15.632812c3.09375 2.65625 1.214844 7.730469-2.863281 7.730469zm0 0" fill="#d82652"/><path d="m91.285156 409.042969h72.792969c3.507813 0 6.351563-2.84375 6.351563-6.351563v-47.046875h-79.144532c-4.078125 0-5.957031 5.074219-2.863281 7.730469l18.214844 15.632812c2.042969 1.753907 2.042969 4.917969 0 6.671876l-18.214844 15.632812c-3.09375 2.65625-1.214844 7.730469 2.863281 7.730469zm0 0" fill="#d82652"/><path d="m372.023438 382.34375h-232.046876c-3.859374 0-6.984374-3.125-6.984374-6.980469v-39.4375c0-3.855469 3.125-6.980469 6.984374-6.980469h232.046876c3.859374 0 6.984374 3.125 6.984374 6.980469v39.4375c0 3.855469-3.128906 6.980469-6.984374 6.980469zm0 0" fill="#fc5b8c"/><path d="m264.566406 23.867188 27.046875 71.9375 76.777344 3.492187c8.4375.386719 11.894531 11.023437 5.292969 16.296875l-60.058594 47.953125 20.402344 74.097656c2.242187 8.144531-6.808594 14.71875-13.863282 10.070313l-64.164062-42.300782-64.167969 42.300782c-7.050781 4.648437-16.101562-1.925782-13.859375-10.070313l20.402344-74.097656-60.058594-47.953125c-6.601562-5.273438-3.144531-15.910156 5.292969-16.296875l76.773437-3.492187 27.050782-71.9375c2.972656-7.910157 14.160156-7.910157 17.132812 0zm0 0" fill="#fcdf6c"/><path d="m368.390625 99.296875-38.308594-1.742187-68.457031 54.660156 19.144531 69.53125 39.394531 25.96875c7.054688 4.652344 16.105469-1.925782 13.863282-10.070313l-20.402344-74.097656 60.058594-47.953125c6.601562-5.273438 3.144531-15.910156-5.292969-16.296875zm0 0" fill="#f4b425"/><path d="m500.15625 157.242188c-3.664062-2.226563-8.261719-1.792969-11.445312 1.070312-7.699219 6.941406-15.507813 13.359375-23.570313 19.375 1.6875-5.613281 3.160156-11.140625 4.417969-16.554688 14.226562-8.183593 25.609375-21.523437 33.0625-38.796874 6.875-15.941407 10.148437-34.808594 9.222656-53.125-.214844-4.292969-3.167969-7.847657-7.347656-8.855469-4.191406-1.003907-8.449219.828125-10.597656 4.566406-5.230469 9.09375-10.738282 17.707031-16.636719 25.996094-.070313-7-.390625-13.800781-.960938-20.359375 0-.15625-.007812-.308594-.019531-.464844-1.621094-21.554688-5.59375-43.160156-11.808594-64.214844-1.171875-3.972656-5.339844-6.246094-9.316406-5.070312-3.972656 1.171875-6.242188 5.34375-5.070312 9.316406 3.828124 12.96875 6.761718 26.148438 8.773437 39.394531-7.472656-7.167969-15.175781-13.875-23.261719-20.261719-3.265625-2.582031-7.796875-2.769531-11.273437-.472656-3.476563 2.296875-5.074219 6.535156-3.984375 10.546875 8.488281 31.191407 22.652344 57.824219 41.066406 77.277344-.425781 5.472656-1.058594 11.097656-1.890625 16.851563-4.976563-8.71875-10.289063-17.058594-16.039063-25.191407-2.378906-3.363281-6.632812-4.839843-10.585937-3.675781-3.949219 1.164062-6.71875 4.703125-6.890625 8.808594-.925781 21.996094 1.25 54.082031 16.488281 83.867187-1.976562 4.988281-4.179687 10.058594-6.601562 15.191407-2.242188-9.730469-4.914063-19.191407-8.066407-28.570313-1.308593-3.890625-4.945312-6.523437-9.050781-6.558594-.027343 0-.054687 0-.082031 0-4.066406 0-7.699219 2.5625-9.058594 6.394531-10.136718 28.617188-13.113281 58.507813-8.480468 84.613282-3.355469 4.222656-6.957032 8.457031-10.785157 12.679687.722657-9.984375.941407-19.84375.664063-29.765625-.113282-4.105468-2.824219-7.6875-6.746094-8.917968-3.917969-1.230469-8.179688.160156-10.613281 3.457031-17.351563 23.527343-28.90625 50.140625-32.945313 75.652343h-169.449218c-4.035157-25.511718-15.59375-52.125-32.945313-75.652343-2.433594-3.292969-6.691406-4.6875-10.609375-3.457031-3.921875 1.226562-6.632812 4.8125-6.75 8.917968-.273438 9.921875-.054688 19.78125.667969 29.769532-3.828125-4.226563-7.429688-8.460938-10.789063-12.683594 4.632813-26.101563 1.65625-55.992188-8.476562-84.609375-1.359375-3.835938-4.992188-6.398438-9.0625-6.398438-.023438 0-.050782 0-.078125 0-4.105469.035157-7.746094 2.667969-9.050781 6.558594-3.152344 9.378906-5.828126 18.839844-8.066407 28.570313-2.425781-5.132813-4.628906-10.203126-6.601562-15.191407 15.238281-29.789062 17.414062-61.871093 16.488281-83.863281-.171875-4.105469-2.941406-7.644531-6.890625-8.808594-3.953125-1.167968-8.207031.3125-10.582031 3.671875-5.75 8.132813-11.066406 16.476563-16.042969 25.195313-.832031-5.757813-1.46875-11.382813-1.894531-16.851563 18.417968-19.453125 32.582031-46.089843 41.070312-77.277343 1.089844-4.011719-.507812-8.25-3.984375-10.546876-3.476562-2.296874-8.007812-2.109374-11.273437.472657-8.085938 6.386719-15.789063 13.09375-23.261719 20.257812 2.011719-13.242187 4.945313-26.425781 8.773437-39.390625 1.171876-3.972656-1.097656-8.144531-5.070312-9.316406-3.96875-1.175781-8.144531 1.097656-9.316406 5.066406-6.214844 21.054688-10.1875 42.660156-11.808594 64.214844-.011719.160156-.019531.316406-.019531.472656-.570313 6.554688-.894531 13.355469-.960938 20.355469-5.902343-8.292969-11.410156-16.90625-16.636719-26-2.148437-3.734375-6.410156-5.570313-10.597656-4.5625-4.179687 1.003906-7.132812 4.5625-7.347656 8.851563-.929688 18.320312 2.347656 37.1875 9.222656 53.125 7.453125 17.277343 18.835938 30.617187 33.0625 38.796874 1.257813 5.414063 2.730469 10.941407 4.414063 16.554688-8.058594-6.011719-15.863281-12.433594-23.566407-19.371094-3.1875-2.867187-7.785156-3.296875-11.445312-1.074218-3.652344 2.222656-5.386719 6.488281-4.308594 10.628906 8.191406 31.511718 31.957032 65.949218 66.988282 73.886718 2.765624 4.785157 5.769531 9.617188 8.988281 14.464844-9.433594-3.386718-18.757813-7.222656-28.136719-11.574218-3.878906-1.800782-8.398438-.863282-11.242188 2.332031-2.839843 3.1875-3.246093 7.773437-1.015624 11.410156 16.222656 26.457031 46.828124 51.375 80.796874 51.375 1.601563 0 3.214844-.054687 4.832032-.167969 4.28125 3.992188 8.828125 7.949219 13.617187 11.851563h-2.386719c-7.988281 0-14.484374 6.496093-14.484374 14.480469v12.21875h-34.207032c-5.03125 0-9.410156 3.046874-11.15625 7.765624-1.746094 4.714844-.410156 9.878907 3.40625 13.15625l15.472656 13.277344-15.472656 13.28125c-3.816406 3.273438-5.152344 8.441406-3.40625 13.15625s6.125 7.761719 11.15625 7.761719h72.792969c7.640625 0 13.851563-6.210937 13.851563-13.851563v-12.847656h156.136718v12.847656c0 7.640626 6.214844 13.851563 13.851563 13.851563h72.796875c5.027344 0 9.40625-3.046875 11.152344-7.761719 1.75-4.714844.414062-9.882812-3.40625-13.160156l-15.46875-13.277344 15.472656-13.277344c3.816406-3.277343 5.152344-8.441406 3.402344-13.160156-1.746094-4.714844-6.125-7.761718-11.152344-7.761718h-34.207032v-12.21875c0-7.984376-6.496093-14.480469-14.484374-14.480469h-2.386719c4.789062-3.902344 9.335937-7.859375 13.617187-11.851563 1.617188.113282 3.230469.167969 4.832032.167969 33.964843 0 64.574218-24.921875 80.796874-51.375 2.230469-3.636719 1.824219-8.222656-1.015624-11.414063-2.84375-3.195312-7.367188-4.132812-11.242188-2.332031-9.378906 4.355469-18.703125 8.191407-28.136719 11.578125 3.21875-4.851562 6.222657-9.679687 8.988281-14.46875 35.03125-7.933594 58.792969-42.375 66.988282-73.886718 1.078125-4.136719-.65625-8.40625-4.308594-10.625zm-346.261719 154.234374c-5.476562-4.375-10.625-8.824218-15.410156-13.3125-1.308594-9.773437-2.121094-19.304687-2.453125-28.777343 8.144531 13.640625 14.214844 27.957031 17.863281 42.089843zm-60.617187-105.867187c3.75 15.289063 5.28125 30.578125 4.519531 44.976563-3.867187-5.6875-7.417969-11.335938-10.621094-16.917969 1.636719-9.664063 3.65625-18.960938 6.101563-28.058594zm-22.371094-73.78125c-.871094 15.925781-3.84375 31.105469-8.734375 44.652344-2.0625-6.605469-3.828125-13.085938-5.273437-19.390625 4.378906-8.832032 9.015624-17.199219 14.007812-25.261719zm.710938-78.976563c-5.757813 15.621094-13.140626 29.59375-21.898438 41.445313-.007812-7.140625.25-14.0625.777344-20.714844 6.867187-7.382812 13.863281-14.246093 21.121094-20.730469zm-55.597657 37.285157c6.078125 9.214843 12.550781 18.019531 19.535157 26.574219.53125 7.230468 1.40625 14.707031 2.609374 22.371093-12.585937-12.589843-19.667968-30.816406-22.144531-48.945312zm12.820313 92.582031c8.496094 6.800781 17.214844 13.109375 26.324218 19.058594 2.589844 6.628906 5.5625 13.390625 8.890626 20.234375-15.53125-8.15625-27.550782-23.109375-35.214844-39.292969zm38.917968 83.585938c10.097657 4.007812 20.257813 7.492187 30.675782 10.523437 4.4375 5.628906 9.277344 11.273437 14.488281 16.882813-17.265625-3.332032-33.128906-14.15625-45.164063-27.40625zm95.171876 135.242187h-63.261719l11.855469-10.175781c2.632812-2.265625 4.144531-5.550782 4.144531-9.027344 0-3.472656-1.511719-6.761719-4.148438-9.023438l-11.851562-10.175781h25.824219v12.21875c0 7.984375 6.5 14.480469 14.484374 14.480469h22.957032v11.703125zm223.578124-26.183594v-12.21875h25.824219l-11.855469 10.175781c-2.636718 2.261719-4.144531 5.550782-4.144531 9.023438 0 3.476562 1.511719 6.765625 4.144531 9.027344l11.855469 10.175781h-63.265625v-11.703125h22.957032c7.988281 0 14.484374-6.496094 14.484374-14.480469zm-15-.519531h-231.015624v-38.398438h231.015624zm124.472657-284.707031c-2.476563 18.128906-9.558594 36.355469-22.144531 48.945312 1.203124-7.664062 2.074218-15.140625 2.609374-22.367187 6.984376-8.558594 13.457032-17.359375 19.535157-26.578125zm-34.476563-16.554688c.527344 6.652344.785156 13.574219.773438 20.714844-8.753906-11.851563-16.140625-25.824219-21.898438-41.441406 7.261719 6.480469 14.257813 13.34375 21.125 20.726562zm-6.40625 83.507813c-1.441406 6.300781-3.207031 12.785156-5.269531 19.390625-4.890625-13.546875-7.863281-28.722657-8.734375-44.652344 4.992188 8.0625 9.628906 16.429687 14.003906 25.261719zm-36.378906 48.515625c2.449219 9.101562 4.46875 18.398437 6.105469 28.0625-3.203125 5.578125-6.753907 11.230469-10.621094 16.917969-.765625-14.398438.769531-29.691407 4.515625-44.980469zm-42.75 63.78125c-.332031 9.476562-1.148438 19.003906-2.453125 28.78125-4.785156 4.484375-9.933594 8.933593-15.410156 13.308593 3.648437-14.136718 9.71875-28.445312 17.863281-42.089843zm23.109375 24.324219c5.207031-5.613282 10.050781-11.253907 14.484375-16.882813 10.421875-3.035156 20.578125-6.515625 30.675781-10.523437-12.035156 13.25-27.894531 24.078124-45.160156 27.40625zm48.867187-71.699219c3.324219-6.84375 6.300782-13.605469 8.890626-20.238281 9.109374-5.945313 17.828124-12.253907 26.320312-19.054688-7.664062 16.183594-19.679688 31.136719-35.210938 39.292969zm0 0"/><path d="m133.636719 121.453125 56.191406 44.871094-3.878906 14.09375c-1.101563 3.996093 1.246093 8.125 5.238281 9.222656.667969.183594 1.339844.273437 1.996094.273437 3.292968 0 6.3125-2.1875 7.226562-5.511718l5.195313-18.863282c.796875-2.890624-.207031-5.980468-2.550781-7.851562l-60.058594-47.953125c-.222656-.179687-.894532-.714844-.542969-1.800781.355469-1.089844 1.214844-1.128906 1.5-1.140625l76.773437-3.496094c2.996094-.136719 5.621094-2.046875 6.679688-4.851563l27.046875-71.9375c.101563-.265624.40625-1.074218 1.546875-1.074218 1.144531 0 1.445312.808594 1.546875 1.074218l7.421875 19.734376c1.457031 3.878906 5.78125 5.839843 9.660156 4.378906 3.875-1.457032 5.835938-5.78125 4.378906-9.660156l-7.421874-19.734376c-2.464844-6.554687-8.582032-10.792968-15.585938-10.792968s-13.121094 4.238281-15.585938 10.792968l-25.308593 67.308594-71.835938 3.269532c-6.996093.320312-12.917969 4.828124-15.082031 11.492187-2.164062 6.660156-.023438 13.789063 5.449219 18.15625zm0 0"/><path d="m275.550781 74.386719 9.042969 24.058593c1.058594 2.804688 3.683594 4.714844 6.679688 4.851563l76.777343 3.496094c.28125.011719 1.140625.050781 1.496094 1.140625.351563 1.085937-.320313 1.625-.542969 1.800781l-60.054687 47.953125c-2.347657 1.871094-3.351563 4.960938-2.554688 7.851562l20.402344 74.097657c.074219.273437.300781 1.105469-.621094 1.777343-.929687.667969-1.648437.195313-1.882812.042969l-64.164063-42.300781c-2.503906-1.652344-5.753906-1.648438-8.257812 0l-64.167969 42.300781c-.234375.152344-.953125.625-1.878906-.042969-.925781-.671874-.695313-1.503906-.621094-1.777343l7.234375-26.285157c1.101562-3.996093-1.246094-8.121093-5.238281-9.222656-3.992188-1.097656-8.121094 1.246094-9.222657 5.242188l-7.234374 26.285156c-1.859376 6.75.597656 13.773438 6.265624 17.890625 2.941407 2.136719 6.355469 3.210937 9.78125 3.210937 3.175782 0 6.355469-.925781 9.171876-2.78125l60.039062-39.578124 60.039062 39.578124c5.847657 3.855469 13.285157 3.6875 18.953126-.429687 5.664062-4.117187 8.125-11.140625 6.265624-17.890625l-19.089843-69.332031 56.195312-44.871094c5.472657-4.371094 7.609375-11.496094 5.445313-18.15625-2.164063-6.664063-8.082032-11.171875-15.078125-11.492187l-71.835938-3.269532-7.304687-19.429687c-1.457032-3.875-5.785156-5.839844-9.660156-4.378907-3.875 1.457032-5.835938 5.785157-4.378907 9.660157zm0 0"/></svg>