<svg height="512pt" viewBox="-86 0 511 512" width="512pt" xmlns="http://www.w3.org/2000/svg"><path d="m290.800781 150.289062-120.859375 57.78125-120.855468-57.785156c-8.566407-4.09375-14.019532-12.742187-14.019532-22.238281v-120.546875h269.753906v120.550781c0 9.492188-5.453124 18.140625-14.019531 22.238281zm0 0" fill="#fc5b8c"/><path d="m115.4375 182.011719 54.503906 26.058593 54.503906-26.058593v-174.511719h-109.007812zm0 0" fill="#e4eaf7"/><path d="m224.445312 7.5v174.511719l66.355469-31.722657c8.566407-4.097656 14.019531-12.746093 14.019531-22.238281v-120.550781zm0 0" fill="#6bd"/><path d="m318.738281 33.789062h-297.589843c-7.261719 0-13.144532-5.882812-13.144532-13.144531 0-7.257812 5.882813-13.144531 13.144532-13.144531h297.589843c7.257813 0 13.144531 5.882812 13.144531 13.144531s-5.886718 13.144531-13.144531 13.144531zm0 0" fill="#ff8533"/><path d="m179.960938 240.9375 31.628906 84.121094 89.773437 4.085937c9.871094.449219 13.914063 12.886719 6.191407 19.054688l-70.226563 56.074219 23.855469 86.644531c2.621094 9.527343-7.960938 17.214843-16.207032 11.777343l-75.035156-49.464843-75.03125 49.460937c-8.25 5.4375-18.832031-2.25-16.207031-11.773437l23.855469-86.644531-70.230469-56.078126c-7.71875-6.164062-3.675781-18.601562 6.191406-19.054687l89.777344-4.085937 31.628906-84.117188c3.476563-9.246094 16.558594-9.246094 20.035157 0zm0 0" fill="#ff8533"/><path d="m131.539062 392.867188-41.355468-33.019532c-2.476563-1.980468-1.179688-5.976562 1.988281-6.121094l52.867187-2.40625c1.371094-.0625 2.578126-.9375 3.0625-2.222656l18.625-49.535156c1.117188-2.972656 5.316407-2.972656 6.433594 0l18.625 49.535156c.484375 1.285156 1.6875 2.160156 3.058594 2.222656l52.867188 2.40625c3.167968.144532 4.46875 4.140626 1.988281 6.121094l-41.355469 33.019532c-1.074219.859374-1.535156 2.273437-1.167969 3.597656l14.046875 51.023437c.839844 3.058594-2.558594 5.527344-5.207031 3.78125l-44.183594-29.128906c-1.148437-.753906-2.636719-.753906-3.78125 0l-44.183593 29.128906c-2.648438 1.746094-6.046876-.722656-5.207032-3.78125l14.046875-51.023437c.367188-1.324219-.09375-2.738282-1.167969-3.597656zm0 0" fill="#fcdf6c"/><path d="m247.710938 353.726562-52.863282-2.40625c-1.375-.0625-2.578125-.9375-3.0625-2.222656l-.449218-1.203125-36.511719 29.152344 12.539062 45.546875.6875-.453125c1.148438-.757813 2.636719-.757813 3.785157 0l44.183593 29.125c2.648438 1.746094 6.046875-.722656 5.203125-3.78125l-14.046875-51.019531c-.363281-1.328125.09375-2.742188 1.167969-3.601563l41.355469-33.019531c2.480469-1.976562 1.183593-5.972656-1.988281-6.117188zm0 0" fill="#f4b425"/><path d="m290.800781 150.289062-120.859375 57.78125-120.855468-57.785156c-8.566407-4.09375-14.019532-12.742187-14.019532-22.238281v-120.546875h269.753906v120.550781c0 9.492188-5.453124 18.140625-14.019531 22.238281zm0 0" fill="#fc5b8c"/><path d="m115.4375 182.011719 54.503906 26.058593 54.503906-26.058593v-174.511719h-109.007812zm0 0" fill="#e4eaf7"/><path d="m224.445312 7.5v174.511719l66.355469-31.722657c8.566407-4.097656 14.019531-12.746093 14.019531-22.238281v-120.550781zm0 0" fill="#6bd"/><path d="m252.460938 7.5v95.164062c0 9.492188-5.453126 18.144532-14.015626 22.238282l-13.996093 6.691406v50.417969l66.355469-31.722657c8.5625-4.097656 14.015624-12.746093 14.015624-22.238281v-120.550781zm0 0" fill="#52a7c9"/><path d="m318.738281 33.789062h-297.589843c-7.261719 0-13.144532-5.882812-13.144532-13.144531 0-7.257812 5.882813-13.144531 13.144532-13.144531h297.589843c7.257813 0 13.144531 5.882812 13.144531 13.144531s-5.886718 13.144531-13.144531 13.144531zm0 0" fill="#ff8533"/><path d="m117.585938 182.683594-2.148438-1.023438v.351563l54.503906 26.058593 54.503906-26.058593v-50.417969zm0 0" fill="#c3c8d0"/><path d="m257.957031 353.785156c-1.421875-4.375-5.308593-7.335937-9.902343-7.546875l-50.191407-2.285156-17.683593-47.027344c-1.617188-4.304687-5.636719-7.085937-10.238282-7.085937-4.597656 0-8.617187 2.78125-10.234375 7.085937l-17.683593 47.027344-50.191407 2.285156c-4.59375.210938-8.484375 3.171875-9.902343 7.546875-1.421876 4.375-.019532 9.054688 3.574218 11.929688l39.265625 31.347656-13.339843 48.441406c-1.21875 4.433594.394531 9.046875 4.117187 11.753906 1.929687 1.402344 4.175781 2.105469 6.425781 2.105469 2.085938 0 4.175782-.605469 6.023438-1.824219l41.945312-27.652343 41.949219 27.648437c3.839844 2.535156 8.726563 2.425782 12.449219-.28125 3.722656-2.703125 5.335937-7.316406 4.113281-11.75l-13.335937-48.441406 39.265624-31.351562c3.59375-2.871094 5-7.550782 3.574219-11.925782zm-54.292969 33.226563c-3.421874 2.734375-4.878906 7.226562-3.71875 11.449219l11.179688 40.605468-35.160156-23.179687c-3.660156-2.410157-8.386719-2.410157-12.042969 0l-35.160156 23.179687 11.175781-40.605468c1.164062-4.222657-.296875-8.714844-3.71875-11.449219l-32.910156-26.277344 42.070312-1.917969c4.375-.199218 8.199219-2.976562 9.742188-7.074218l14.820312-39.421876 14.824219 39.421876c1.542969 4.101562 5.363281 6.875 9.738281 7.074218l42.074219 1.917969zm0 0"/><path d="m312.320312 128.050781v-86.757812h6.421876c11.382812 0 20.644531-9.261719 20.644531-20.648438 0-11.382812-9.261719-20.644531-20.648438-20.644531h-297.59375c-11.382812 0-20.644531 9.261719-20.644531 20.644531 0 11.386719 9.261719 20.648438 20.644531 20.648438h6.421875v86.757812c0 12.308594 7.175782 23.695313 18.28125 29.007813l91.410156 43.703125c-3.027343 4.203125-4.742187 9.328125-4.742187 14.765625v15.515625c0 10.097656 5.902344 18.835937 14.519531 22.878906l-24.019531 63.875-84.835937 3.859375c-7.648438.347656-14.121094 5.277344-16.484376 12.558594-2.367187 7.28125-.03125 15.070312 5.953126 19.847656l66.363281 52.992188-22.542969 81.878906c-2.03125 7.382812.660156 15.058594 6.851562 19.558594 3.214844 2.335937 6.949219 3.507812 10.691407 3.507812 3.472656 0 6.949219-1.007812 10.027343-3.035156l70.902344-46.742188 70.90625 46.742188c6.390625 4.210937 14.523438 4.027344 20.71875-.472656 6.191406-4.5 8.882813-12.175782 6.851563-19.558594l-8.683594-31.527344c-1.097656-3.996094-5.230469-6.339844-9.21875-5.242188-3.996094 1.101563-6.339844 5.230469-5.242187 9.222657l8.679687 31.527343c.515625 1.863282-.53125 2.957032-1.203125 3.441407-.671875.488281-2.03125 1.144531-3.644531.082031l-75.035157-49.460938c-2.503906-1.652343-5.75-1.652343-8.253906 0l-75.035156 49.460938c-1.609375 1.0625-2.972656.40625-3.644531-.082031-.667969-.484375-1.714844-1.582031-1.203125-3.441407l23.855468-86.644531c.796876-2.890625-.207031-5.980469-2.550781-7.851562l-70.230469-56.074219c-1.503906-1.207031-1.300781-2.707031-1.046874-3.492188.257812-.789062.972656-2.121093 2.902343-2.210937l89.777344-4.085937c2.996094-.136719 5.621094-2.046876 6.675781-4.855469l31.632813-84.117188c.679687-1.804687 2.167969-2.074219 2.996093-2.074219.828126 0 2.316407.269532 2.996094 2.074219l31.628906 84.117188c1.058594 2.808593 3.683594 4.71875 6.679688 4.855469l89.777344 4.085937c1.929687.089844 2.644531 1.421875 2.902344 2.210937.253906.785157.457031 2.285157-1.046876 3.492188l-70.230468 56.074219c-2.34375 1.871093-3.347656 4.960937-2.550782 7.851562l7.234376 26.277344c1.097656 3.992187 5.230468 6.339844 9.222656 5.238281 3.992187-1.101562 6.339844-5.226562 5.238281-9.222656l-5.921875-21.507812 66.367188-52.992188c5.980468-4.777344 8.316406-12.566406 5.953124-19.847656-2.367187-7.28125-8.835937-12.210938-16.484374-12.558594l-84.835938-3.863281-24.019531-63.875c8.617187-4.039063 14.519531-12.777344 14.519531-22.875v-15.515625c0-5.441406-1.714844-10.566406-4.742188-14.769532l91.410157-43.703124c11.101562-5.308594 18.277343-16.695313 18.277343-29.003907zm-296.820312-107.40625c0-3.113281 2.53125-5.644531 5.644531-5.644531h297.59375c3.113281 0 5.648438 2.53125 5.648438 5.644531s-2.535157 5.648438-5.648438 5.648438h-297.59375c-3.113281-.003907-5.644531-2.535157-5.644531-5.648438zm27.066406 107.40625v-86.757812h65.371094v25.390625c0 4.140625 3.359375 7.5 7.5 7.5 4.144531 0 7.5-3.359375 7.5-7.5v-25.390625h94.011719v135.996093l-47.007813 22.472657-47.003906-22.476563v-80.019531c0-4.144531-3.359375-7.5-7.5-7.5s-7.5 3.355469-7.5 7.5v72.851563l-55.621094-26.59375c-5.921875-2.832032-9.75-8.90625-9.75-15.472657zm149.804688 87.476563v15.515625c0 3.675781-1.925782 6.902343-4.84375 8.71875l-.546875-1.460938c-2.695313-7.164062-9.382813-11.792969-17.039063-11.792969-7.652344 0-14.339844 4.628907-17.035156 11.792969l-.550781 1.460938c-2.917969-1.816407-4.839844-5.042969-4.839844-8.71875v-15.515625c0-3.183594 1.449219-6.105469 3.847656-8.023438l15.34375 7.335938c1.023438.488281 2.128907.734375 3.234375.734375 1.109375 0 2.214844-.246094 3.238282-.734375l15.339843-7.335938c2.402344 1.917969 3.851563 4.839844 3.851563 8.023438zm95.199218-72.003906-55.621093 26.589843v-128.820312h65.371093v86.757812c0 6.566407-3.828124 12.640625-9.75 15.472657zm0 0"/></svg>