<svg height="512pt" viewBox="-96 0 512 512" width="512pt" xmlns="http://www.w3.org/2000/svg"><path d="m195.234375 380.183594h-69.992187l21.601562-143.3125h26.789062zm0 0" fill="#e4eaf7"/><path d="m34.386719 360.996094h251.707031v129.3125h-251.707031zm0 0" fill="#fcdf6c"/><path d="m233.734375 360.996094h52.359375v129.3125h-52.359375zm0 0" fill="#f4b425"/><path d="m289.96875 375.1875h-259.457031c-7.835938 0-14.191407-6.355469-14.191407-14.191406 0-7.835938 6.355469-14.191406 14.191407-14.191406h259.453125c7.839844 0 14.191406 6.355468 14.191406 14.191406 0 7.835937-6.351562 14.191406-14.1875 14.191406zm0 0" fill="#ff8533"/><path d="m289.96875 504.5h-259.457031c-7.835938 0-14.191407-6.351562-14.191407-14.191406 0-7.835938 6.355469-14.1875 14.191407-14.1875h259.453125c7.839844 0 14.191406 6.351562 14.191406 14.1875 0 7.839844-6.351562 14.191406-14.1875 14.191406zm0 0" fill="#ff8533"/><path d="m171.039062 14.976562 34.105469 90.703126 96.800781 4.40625c10.640626.484374 14.996094 13.898437 6.675782 20.542968l-75.722656 60.464844 25.722656 93.421875c2.824218 10.269531-8.582032 18.558594-17.476563 12.699219l-80.90625-53.335938-80.902343 53.332032c-8.894532 5.863281-20.304688-2.425782-17.476563-12.695313l25.722656-93.425781-75.722656-60.460938c-8.324219-6.648437-3.964844-20.0625 6.675781-20.542968l96.800782-4.410157 34.101562-90.699219c3.75-9.96875 17.855469-9.96875 21.601562 0zm0 0" fill="#fcdf6c"/><path d="m301.941406 110.085938-38.621094-1.757813-68.484374 54.683594c-9.050782 7.226562-12.925782 19.148437-9.851563 30.316406l22.492187 81.695313 33.664063 22.191406c8.894531 5.863281 20.304687-2.429688 17.476563-12.699219l-25.722657-93.421875 75.722657-60.464844c8.324218-6.644531 3.96875-20.058594-6.675782-20.542968zm0 0" fill="#f4b425"/><path d="m221.121094 448.5h-121.765625c-4.109375 0-7.441407-3.332031-7.441407-7.441406v-30.808594c0-4.113281 3.332032-7.445312 7.441407-7.445312h121.765625c4.113281 0 7.445312 3.332031 7.445312 7.445312v30.808594c0 4.109375-3.332031 7.441406-7.445312 7.441406zm0 0" fill="#f8fbff"/><path d="m311.65625 360.996094c0-11.960938-9.730469-21.691406-21.6875-21.691406h-93.308594l-8.550781-56.710938c-.613281-4.09375-4.4375-6.914062-8.53125-6.296875-4.097656.617187-6.917969 4.4375-6.300781 8.535156l8.210937 54.472657h-42.5l8.210938-54.472657c.617187-4.097656-2.199219-7.917969-6.296875-8.535156s-7.917969 2.203125-8.535156 6.296875l-8.546876 56.710938h-93.308593c-11.960938 0-21.691407 9.730468-21.691407 21.691406 0 10.722656 7.828126 19.65625 18.066407 21.386718v86.539063c-10.238281 1.730469-18.066407 10.664063-18.066407 21.386719 0 11.960937 9.730469 21.691406 21.691407 21.691406h259.457031c11.957031 0 21.6875-9.730469 21.6875-21.691406 0-10.722656-7.824219-19.65625-18.0625-21.386719v-86.539063c10.238281-1.730468 18.0625-10.664062 18.0625-21.386718zm-287.835938 0c0-3.691406 3-6.691406 6.691407-6.691406h259.453125c3.691406 0 6.691406 3 6.691406 6.691406 0 3.6875-3 6.691406-6.691406 6.691406h-259.453125c-3.691407 0-6.691407-3.003906-6.691407-6.691406zm18.066407 107.621094v-85.929688h236.707031v85.929688zm254.769531 21.691406c0 3.691406-3 6.691406-6.6875 6.691406h-259.457031c-3.691407 0-6.691407-3-6.691407-6.691406 0-3.6875 3-6.6875 6.691407-6.6875h259.453125c3.691406-.003906 6.691406 3 6.691406 6.6875zm0 0"/><path d="m319.527344 115.730469c-2.476563-7.617188-9.242188-12.773438-17.242188-13.136719l-91.859375-4.183594-32.363281-86.070312c-2.820312-7.496094-9.816406-12.339844-17.824219-12.339844-8.007812 0-15 4.84375-17.820312 12.339844l-32.363281 86.070312-91.859376 4.183594c-8 .363281-14.769531 5.519531-17.242187 13.132812-2.476563 7.617188-.03125 15.765626 6.226563 20.761719l71.859374 57.378907-24.410156 88.65625c-2.125 7.71875.6875 15.75 7.164063 20.457031 6.480469 4.707031 14.984375 4.898437 21.671875.492187l76.773437-50.609375 76.777344 50.609375c3.214844 2.121094 6.855469 3.175782 10.484375 3.175782 3.917969 0 7.824219-1.226563 11.183594-3.667969 6.480468-4.707031 9.292968-12.734375 7.164062-20.457031l-24.40625-88.65625 71.855469-57.378907c6.257813-4.996093 8.703125-13.144531 6.230469-20.757812zm-15.589844 9.039062-75.71875 60.460938c-2.34375 1.871093-3.347656 4.960937-2.550781 7.851562l25.71875 93.425781c.671875 2.433594-.839844 3.84375-1.519531 4.339844-.679688.492188-2.488282 1.492188-4.597657.101563l-80.902343-53.332031c-2.503907-1.648438-5.75-1.648438-8.253907 0l-80.902343 53.332031c-2.109376 1.390625-3.917969.390625-4.597657-.101563-.679687-.496094-2.191406-1.910156-1.519531-4.339844l25.71875-93.425781c.796875-2.890625-.207031-5.980469-2.550781-7.851562l-75.722657-60.460938c-1.972656-1.578125-1.582031-3.605469-1.320312-4.40625.257812-.796875 1.136719-2.671875 3.65625-2.785156l96.800781-4.40625c2.996094-.136719 5.621094-2.046875 6.679688-4.855469l34.101562-90.699218c.890625-2.363282 2.941407-2.617188 3.78125-2.617188.84375 0 2.894531.253906 3.78125 2.617188l34.105469 90.699218c1.054688 2.808594 3.683594 4.71875 6.679688 4.855469l96.796874 4.40625c2.523438.113281 3.398438 1.988281 3.660157 2.785156.257812.800781.648437 2.828125-1.324219 4.40625zm0 0"/><path d="m221.121094 395.304688h-75.847656c-4.144532 0-7.5 3.355468-7.5 7.5 0 4.140624 3.355468 7.5 7.5 7.5l75.792968-.058594.054688 30.753906-121.710938.054688-.054687-30.75h15.917969c4.144531 0 7.5-3.359376 7.5-7.5 0-4.144532-3.355469-7.5-7.5-7.5h-15.917969c-8.242188 0-14.945313 6.703124-14.945313 14.941406v30.808594c0 8.242187 6.703125 14.945312 14.945313 14.945312h121.765625c8.242187 0 14.945312-6.703125 14.945312-14.945312v-30.808594c0-8.238282-6.703125-14.941406-14.945312-14.941406zm0 0"/></svg>